# xmcd
#
# Track frame offsets: 
#        150
#        31345
#        50989
#        73458
#        106536
#        121203
#        145145
#        168777
#        192241
#        212447
#        232025
#
# Disc length: 3353 seconds
#
# Revision: 2
# Processed by: cddbd v1.5.2PL0 Copyright (c) Steve Scherf et al.
# Submitted via: ExactAudioCopy v0.99pb4
#
DISCID=9b0d170b
DTITLE=Larry McCray - Believe It
DYEAR=2000
DGENRE=Blues/Rock
TTITLE0=That's How Strong
TTITLE1=You Don't Know
TTITLE2=Blues Is My Business
TTITLE3=Love Gone Bad
TTITLE4=Burglar
TTITLE5=Strong Companion
TTITLE6=Best In Town
TTITLE7=Believe It
TTITLE8=She's A Wolf
TTITLE9=Cash Money
TTITLE10=Best Friend
EXTD=
EXTT0=
EXTT1=
EXTT2=
EXTT3=
EXTT4=
EXTT5=
EXTT6=
EXTT7=
EXTT8=
EXTT9=
EXTT10=
PLAYORDER=
